<?xml version="1.0" standalone="no"?>
<!DOCTYPE svg PUBLIC "-//W3C//DTD SVG 20010904//EN"
 "http://www.w3.org/TR/2001/REC-SVG-20010904/DTD/svg10.dtd">
<svg version="1.0" xmlns="http://www.w3.org/2000/svg"
 width="64.000000pt" height="64.000000pt" viewBox="0 0 64.000000 64.000000"
 preserveAspectRatio="xMidYMid meet">

<g transform="translate(0.000000,64.000000) scale(0.100000,-0.100000)"
fill="#000000" stroke="none">
<path d="M63 564 c-3 -8 -1 -20 5 -26 15 -15 43 8 35 28 -7 19 -32 18 -40 -2z"/>
<path d="M262 313 c-2 -33 -6 -43 -19 -43 -13 0 -14 -3 -5 -12 20 -20 34 5 29
53 l-4 44 -1 -42z"/>
<path d="M302 338 c-27 -27 -3 -88 34 -88 18 0 54 36 54 53 0 36 -63 60 -88
35z m68 -39 c0 -24 -27 -36 -48 -22 -23 14 -25 29 -7 47 21 20 55 5 55 -25z"/>
<path d="M400 300 c0 -50 1 -51 28 -48 25 3 27 6 27 48 0 42 -2 45 -27 48 -27
3 -28 2 -28 -48z m35 30 c3 -5 -1 -10 -10 -10 -9 0 -13 5 -10 10 3 6 8 10 10
10 2 0 7 -4 10 -10z m15 -51 c0 -5 -9 -9 -20 -9 -22 0 -27 16 -7 23 15 5 27
-1 27 -14z"/>
<path d="M471 166 l-22 -23 39 -49 c67 -84 93 -93 121 -42 14 25 14 29 -7 51
-13 13 -42 38 -66 55 l-43 31 -22 -23z"/>
</g>
</svg>
